<?xml version="1.0" encoding="UTF-8" standalone="no"?>
<!-- Created with Inkscape (http://www.inkscape.org/) -->

<svg
   xmlns:svg="http://www.w3.org/2000/svg"
   xmlns="http://www.w3.org/2000/svg"
   xmlns:xlink="http://www.w3.org/1999/xlink"
   version="1.1"
   width="575"
   height="129"
   id="svg2">
  <title
     id="title8475">Ubuntu Logo</title>
  <defs
     id="defs4">
    <defs
       id="definitions">
      <linearGradient
         x1="0"
         y1="0.5"
         x2="1"
         y2="0.5"
         id="linearGradient1694"
         xlink:href="#linearGradient2182"
         gradientUnits="objectBoundingBox"
         spreadMethod="pad" />
      <radialGradient
         cx="0.5"
         cy="0.5"
         r="0.55434185"
         fx="0.48461539"
         fy="0.203125"
         id="radialGradient1505"
         xlink:href="#linearGradient1694" />
      <linearGradient
         x1="0"
         y1="0.5"
         x2="1"
         y2="0.5"
         id="MaterialSoftShadow"
         xlink:href="#linearGradient1111"
         gradientUnits="objectBoundingBox"
         spreadMethod="pad" />
      <linearGradient
         x1="0"
         y1="0.5"
         x2="1"
         y2="0.5"
         id="linearGradient1693"
         xlink:href="#linearGradient2179"
         gradientUnits="objectBoundingBox"
         spreadMethod="pad" />
    </defs>
    <linearGradient
       id="linearGradient1111">
      <stop
         id="stop1114"
         style="stop-color:#000000;stop-opacity:0.21472393"
         offset="0" />
      <stop
         id="stop1113"
         style="stop-color:#000000;stop-opacity:0.09815951"
         offset="0.5" />
      <stop
         id="stop1112"
         style="stop-color:#000000;stop-opacity:0"
         offset="1" />
    </linearGradient>
    <linearGradient
       id="linearGradient2179">
      <stop
         id="stop2181"
         style="stop-color:#ffffff;stop-opacity:1"
         offset="0" />
      <stop
         id="stop2180"
         style="stop-color:#ffffff;stop-opacity:0"
         offset="1" />
    </linearGradient>
    <linearGradient
       id="linearGradient2182">
      <stop
         id="stop2185"
         style="stop-color:#0180d4;stop-opacity:1"
         offset="0" />
      <stop
         id="stop2184"
         style="stop-color:#0180d4;stop-opacity:1"
         offset="0.56999999" />
      <stop
         id="stop2183"
         style="stop-color:#013366;stop-opacity:1"
         offset="1" />
    </linearGradient>
  </defs>
  <g
     transform="translate(-87.413424,-252.44232)"
     id="layer1">
    <path
       d=""
       id="path1334"
       style="fill:#fb8b00;stroke:none" />
    <path
       d=""
       id="path1337"
       style="fill:#d40000;stroke:none" />
    <path
       d=""
       id="path1340"
       style="fill:#f44800;stroke:none" />
    <g
       id="g8469">
      <path
         d="m 525.17757,294.58622 0,53.18642 c -4e-5,13.54214 6.55995,21.09957 19.67986,21.09957 3.51236,0 6.97315,-0.15506 10.3823,-0.46519 3.40903,-0.31013 6.30162,-0.77527 8.67774,-1.39557 l 0,-72.42523 15.49595,0 0,82.03911 c -4.64886,1.65401 -10.02077,2.84284 -16.1158,3.56643 -6.09513,0.82704 -12.24184,1.2405 -18.44019,1.2405 -11.57036,0 -20.35137,-3.68085 -26.34312,-9.46987 -5.99179,-5.78899 -8.98766,-14.57584 -8.98766,-26.36062 l 0,-51.01555 15.65092,0 m -240.0644,0 0,53.18642 c -4e-5,13.54214 6.55995,21.09957 19.67987,21.09957 3.51235,0 6.97314,-0.15506 10.38229,-0.46519 3.40904,-0.31013 6.30163,-0.77527 8.67774,-1.39557 l 0,-72.42523 15.49596,0 0,82.03911 c -4.64887,1.65401 -10.02078,2.84284 -16.1158,3.56643 -6.09514,0.82704 -12.24185,1.2405 -18.44019,1.2405 -11.57036,0 -20.35138,-3.68085 -26.34313,-9.46987 -5.99178,-5.78899 -8.98766,-14.57584 -8.98766,-26.36062 l 0,-51.01555 15.65092,0 m 176.51846,-27.4427 -13.9725,2.53361 -0.0312,84.57879 c 8e-5,16.22975 8.78318,26.86874 28.10129,26.86878 4.75213,-4e-5 13.96756,-1.29049 19.44272,-2.22081 l -1.84425,-10.94771 c -0.1077,0.43061 -12.32829,1.6703 -18.8488,1.31373 -6.52051,-0.35663 -12.4038,-5.67406 -12.97223,-11.13538 l 0.0312,-51.14139 32.19613,0 0,-12.41782 -32.19613,0 0.0937,-27.4318 z m -268.19694,-14.7012 -15.66045,2.53361 0,121.6494 c 9.19425,3.20464 18.95845,4.81699 29.2891,4.81699 1.76844,0 3.48049,-0.0612 5.12638,-0.18767 l 0,-0.0312 c 30.54588,0.14717 46.35455,-24.07243 42.26585,-52.17843 -3.21344,-19.82404 -19.66676,-36.56531 -38.92115,-36.56531 -7.64458,0 -13.74064,2.06822 -18.28616,3.72222 -1.38565,0.52381 -2.63952,1.06353 -3.81352,1.62652 l 0,-45.38604 0,-5e-5 -5e-5,0 z m 21.94339,52.61151 c 17.18558,0.84712 24.07086,15.97143 24.60481,30.84124 0.72995,20.3288 -13.45913,34.66708 -32.60696,32.97304 -4.421,-0.39114 -9.08586,-0.55193 -13.94124,-1.68907 l 0,-55.96322 c 2.04516,-1.74484 4.35169,-3.13687 6.9081,-4.16012 3.61577,-1.34388 8.64102,-2.31705 15.03529,-2.00187 z m 160.69652,74.19649 -15.65092,0 0,-81.25273 c 4.75208,-1.6539 10.0207,-2.84273 15.80588,-3.56644 5.88843,-0.82692 11.93185,-1.24042 18.13028,-1.2405 23.14053,8e-5 34.71082,11.52637 34.71094,34.57892 l 0,51.48075 -15.49596,0 0,-53.65162 c -8e-5,-13.23191 -6.40506,-19.84792 -19.21498,-19.84799 -3.4092,7e-5 -6.71499,0.15507 -9.91742,0.46518 -3.20255,0.31014 -5.99182,0.72372 -8.36782,1.24052 l 0,71.79391 m -273.01026,-84.6641 0,53.18642 c -4e-5,13.54214 6.55995,21.09957 19.67987,21.09957 3.51235,0 6.97314,-0.15506 10.38229,-0.46519 3.40904,-0.31013 6.30162,-0.77527 8.67774,-1.39557 l 0,-72.42523 15.49596,0 0,82.03911 c -4.64887,1.65401 -10.02078,2.84284 -16.11581,3.56643 -6.09513,0.82704 -12.24184,1.2405 -18.44018,1.2405 -11.57037,0 -20.35138,-3.68085 -26.34313,-9.46987 -5.991783,-5.78899 -8.987656,-14.57584 -8.987656,-26.36062 l 0,-51.01555 15.650916,0"
         id="path7342"
         style="font-size:40px;font-style:normal;font-variant:normal;font-weight:bold;font-stretch:normal;text-align:start;line-height:125%;writing-mode:lr-tb;text-anchor:start;fill:#333333;fill-opacity:1;stroke:none;font-family:Xenu;-inkscape-font-specification:Xenu Bold" />
      <g
         id="g8465">
        <path
           d="m 487.85714,580.2193 a 33.57143,33.57143 0 1 1 -67.14286,0 33.57143,33.57143 0 1 1 67.14286,0 z"
           transform="matrix(0.98297863,0,0,0.98297863,182.86028,-276.90085)"
           id="path7346"
           style="fill:#ff6309;fill-opacity:1;stroke:none" />
        <path
           d="m 602.95237,290.97179 c 1.29475,-2.24299 4.16309,-3.01134 6.40607,-1.71619 2.24299,1.29475 3.01175,4.16309 1.71659,6.40607 -1.29515,2.24338 -4.16308,3.01175 -6.40607,1.71659 -2.24339,-1.29515 -3.01174,-4.16308 -1.71659,-6.40647 z m 33.55386,-19.18376 c 1.29475,-2.24299 4.16308,-3.01175 6.40607,-1.71659 2.24298,1.29515 3.01174,4.16308 1.71659,6.40647 -1.29516,2.24299 -4.16309,3.01135 -6.40607,1.71619 -2.24339,-1.29475 -3.01175,-4.16308 -1.71659,-6.40607 z m 0.10335,38.6187 c 1.29475,-2.24299 4.16309,-3.01134 6.40607,-1.71659 2.24339,1.29515 3.01175,4.16349 1.71659,6.40647 -1.29475,2.24299 -4.16308,3.01175 -6.40607,1.71659 -2.24339,-1.29515 -3.01175,-4.16348 -1.71659,-6.40647 z m -2.78621,1.82916 c -4.38742,0.91017 -8.92307,0.28964 -12.86221,-1.66211 l 4.05973,-6.97733 c 5.45944,2.42005 11.97768,0.37977 15.03069,-4.90861 0.7972,-1.38089 1.28474,-2.85591 1.48384,-4.34456 l 8.05055,0.0417 c -0.37296,4.57731 -2.32631,8.97034 -5.6313,12.32781 -3.26092,-1.77668 -7.36151,-0.63616 -9.22873,2.59792 -0.53481,0.9262 -0.82925,1.92571 -0.90257,2.92522 z m -15.69489,-3.37349 c -2.1905,-1.588 -4.09018,-3.65151 -5.53035,-6.14608 -0.70146,-1.21463 -1.2595,-2.47293 -1.68053,-3.75487 0.81283,-0.56045 1.51668,-1.30557 2.04308,-2.21734 1.8548,-3.21286 0.81804,-7.30183 -2.30308,-9.25318 1.17377,-4.23959 3.74806,-8.09421 7.52136,-10.80831 l 4.0413,6.99977 c -1.04037,0.86771 -1.94855,1.93011 -2.66522,3.17198 -2.92041,5.05804 -1.68215,11.37598 2.6536,14.99464 l -4.08016,7.01339 z m 6.90683,-26.92264 -4.01967,-6.96171 c 4.07255,-2.01184 8.5465,-2.49938 12.73162,-1.64729 -0.30526,2.63798 0.94302,5.32764 3.38912,6.73977 2.44689,1.41294 5.40215,1.14854 7.53417,-0.43666 0.8625,0.97708 1.64088,2.05471 2.3179,3.22688 1.50307,2.60352 2.34955,5.40535 2.59071,8.2148 l -8.06978,-0.0417 c -0.51358,-3.446 -2.53743,-6.63361 -5.78914,-8.51084 -3.39313,-1.95896 -7.3531,-2.0467 -10.68493,-0.58329 z"
           id="path1339"
           style="fill:#ffffff;stroke:none" />
      </g>
    </g>
  </g>
</svg>
