<?xml version="1.0" encoding="UTF-8" standalone="no"?>
<!-- Created with Inkscape (http://www.inkscape.org/) -->

<svg
   xmlns:dc="http://purl.org/dc/elements/1.1/"
   xmlns:cc="http://creativecommons.org/ns#"
   xmlns:rdf="http://www.w3.org/1999/02/22-rdf-syntax-ns#"
   xmlns:svg="http://www.w3.org/2000/svg"
   xmlns="http://www.w3.org/2000/svg"
   xmlns:sodipodi="http://sodipodi.sourceforge.net/DTD/sodipodi-0.dtd"
   xmlns:inkscape="http://www.inkscape.org/namespaces/inkscape"
   width="210mm"
   height="297mm"
   viewBox="0 0 744.09448819 1052.3622047"
   id="svg5102"
   version="1.1"
   inkscape:version="0.91 r13725"
   sodipodi:docname="stampel-kbl-vektor-hitam.svg">
  <defs
     id="defs5104" />
  <sodipodi:namedview
     id="base"
     pagecolor="#ffffff"
     bordercolor="#666666"
     borderopacity="1.0"
     inkscape:pageopacity="0.0"
     inkscape:pageshadow="2"
     inkscape:zoom="0.35"
     inkscape:cx="325"
     inkscape:cy="520"
     inkscape:document-units="px"
     inkscape:current-layer="layer1"
     showgrid="false"
     inkscape:window-width="1366"
     inkscape:window-height="719"
     inkscape:window-x="0"
     inkscape:window-y="25"
     inkscape:window-maximized="1" />
  <metadata
     id="metadata5107">
    <rdf:RDF>
      <cc:Work
         rdf:about="">
        <dc:format>image/svg+xml</dc:format>
        <dc:type
           rdf:resource="http://purl.org/dc/dcmitype/StillImage" />
        <dc:title></dc:title>
      </cc:Work>
    </rdf:RDF>
  </metadata>
  <g
     inkscape:label="Layer 1"
     inkscape:groupmode="layer"
     id="layer1">
    <g
       id="g5934">
      <g
         inkscape:export-ydpi="100"
         inkscape:export-xdpi="100"
         id="g4436"
         style="fill:#000000;fill-opacity:1"
         transform="matrix(3.8131905,0,0,3.8131905,-224.66282,-961.75656)">
        <g
           id="g4438"
           style="fill:#000000;fill-opacity:1">
          <path
             style="fill:#000000;fill-opacity:1;fill-rule:evenodd;stroke:none;stroke-width:1px;stroke-linecap:butt;stroke-linejoin:miter;stroke-opacity:1"
             d="m 149.92773,326.26758 c 2.67037,30.49089 -2.98044,42.77119 -7.6875,55.12109 13.41513,-0.82995 25.696,-0.69994 32.43165,-10.58594 6.14994,-9.02636 -1.44952,-23.44596 -10.80469,-30.33007 1.95128,-0.124 5.12283,-1.96924 4.64062,-6.46094 -0.48519,-4.87656 -8.40787,-5.39137 -18.58008,-7.74414 z m 11.11915,16.85351 c 7.55173,6.8824 13.35076,15.42913 11.8125,21.8711 -1.42429,5.9646 -10.33939,9.62853 -16.48047,10.16211 5.07063,-11.48052 5.05502,-19.15095 4.66797,-32.03321 z"
             id="path4441"
             inkscape:connector-curvature="0" />
          <path
             style="fill:#000000;fill-opacity:1;fill-rule:evenodd;stroke:none;stroke-width:1px;stroke-linecap:butt;stroke-linejoin:miter;stroke-opacity:1"
             d="m 166.98282,340.6657 5.01866,0.58519 -2.66338,-3.16124 c -0.60013,0.77463 -0.8501,1.30724 -2.35528,2.57605 z"
             id="path4443"
             inkscape:connector-curvature="0"
             sodipodi:nodetypes="cccc" />
        </g>
        <g
           id="text4445"
           style="font-style:normal;font-weight:normal;font-size:46.82795715px;line-height:125%;font-family:sans-serif;letter-spacing:0px;word-spacing:0px;fill:#000000;fill-opacity:1;stroke:none;stroke-width:1px;stroke-linecap:butt;stroke-linejoin:miter;stroke-opacity:1">
          <path
             inkscape:connector-curvature="0"
             id="path4582"
             style="font-style:normal;font-variant:normal;font-weight:normal;font-stretch:normal;font-family:Zrnic;-inkscape-font-specification:Zrnic;fill:#000000;fill-opacity:1"
             d="m 141.18508,372.52121 -5.24473,0 -8.52269,-14.65715 0,14.65715 -4.72962,0 0,-30.95328 4.72962,0 0,13.43962 8.52269,-13.43962 5.24473,0 -10.39581,14.75081 10.39581,16.20247 z" />
        </g>
        <g
           id="text4449"
           style="font-style:normal;font-weight:normal;font-size:46.82795715px;line-height:125%;font-family:sans-serif;letter-spacing:0px;word-spacing:0px;fill:#000000;fill-opacity:1;stroke:none;stroke-width:1px;stroke-linecap:butt;stroke-linejoin:miter;stroke-opacity:1">
          <path
             inkscape:connector-curvature="0"
             id="path4585"
             style="font-style:normal;font-variant:normal;font-weight:normal;font-stretch:normal;font-family:Zrnic;-inkscape-font-specification:Zrnic;fill:#000000;fill-opacity:1"
             d="m 196.82208,372.52121 -13.72059,0 0,-31.14059 4.63597,0 0,28.4714 9.08462,0 0,2.66919 z" />
        </g>
      </g>
      <path
         inkscape:export-ydpi="100"
         inkscape:export-xdpi="100"
         inkscape:connector-curvature="0"
         id="circle4453"
         d="M 644.80524,400.93364 A 264.80527,264.80527 0 0 1 380.00006,665.73889 264.80527,264.80527 0 0 1 115.1948,400.93364 264.80527,264.80527 0 0 1 380.00006,136.12838 264.80527,264.80527 0 0 1 644.80524,400.93364 Z"
         style="opacity:1;fill:none;fill-opacity:1;stroke:#000000;stroke-width:3.81319046;stroke-linecap:round;stroke-linejoin:round;stroke-miterlimit:4;stroke-dasharray:none;stroke-dashoffset:0" />
      <path
         inkscape:export-ydpi="100"
         inkscape:export-xdpi="100"
         inkscape:connector-curvature="0"
         id="circle4455"
         d="M 194.46527,367.01836 A 188.9652,188.9652 0 0 1 415.84148,217.32443 188.9652,188.9652 0 0 1 565.53534,438.70062 188.9652,188.9652 0 0 1 344.15915,588.39454 188.9652,188.9652 0 0 1 194.46527,367.01836 Z"
         style="opacity:1;fill:none;fill-opacity:1;stroke:#000000;stroke-width:3.81319046;stroke-linecap:round;stroke-linejoin:round;stroke-miterlimit:4;stroke-dasharray:none;stroke-dashoffset:0" />
      <g
         inkscape:export-ydpi="100"
         inkscape:export-xdpi="100"
         id="text4457"
         style="font-style:normal;font-weight:normal;font-size:40px;line-height:125%;font-family:sans-serif;letter-spacing:0px;word-spacing:0px;fill:#bc5fd3;fill-opacity:1;stroke:#000000;stroke-width:1px;stroke-linecap:butt;stroke-linejoin:miter;stroke-opacity:1"
         transform="matrix(3.8131905,0,0,3.8131905,-1692.725,-4.2279943)">
        <path
           inkscape:connector-curvature="0"
           id="path4492"
           style="font-size:11.25px;fill:#bc5fd3;stroke:#000000"
           d="m 481.78163,92.74164 0.28407,-1.072641 3.35068,0.88738 -2.40845,-4.445146 0.36564,-1.380626 2.65376,4.913573 5.34875,-3.095393 -0.37408,1.412486 -4.82628,2.796207 3.81796,1.011135 -0.28407,1.07264 -7.92798,-2.099615 z" />
        <path
           inkscape:connector-curvature="0"
           id="path4494"
           style="font-size:11.25px;fill:#bc5fd3;stroke:#000000"
           d="m 487.73611,83.283383 q -0.31444,0.749719 0.0905,1.431818 0.39984,0.679974 1.41804,1.107015 1.0182,0.427041 1.78641,0.242911 0.76526,-0.191321 1.08182,-0.946106 0.31232,-0.744653 -0.0926,-1.426752 -0.4049,-0.682099 -1.41803,-1.107015 -1.00807,-0.422792 -1.7784,-0.233596 -0.7754,0.187072 -1.08771,0.931725 z m -0.79025,-0.331435 q 0.5099,-1.21576 1.59121,-1.578322 1.08132,-0.362562 2.47944,0.223822 1.39306,0.58426 1.8973,1.611816 0.49918,1.025431 -0.0107,2.241192 -0.51202,1.220826 -1.59334,1.583388 -1.08425,0.355372 -2.47731,-0.228888 -1.39812,-0.586384 -1.89943,-1.60675 -0.49917,-1.025431 0.0128,-2.246258 z" />
        <path
           inkscape:connector-curvature="0"
           id="path4496"
           style="font-size:11.25px;fill:#bc5fd3;stroke:#000000"
           d="m 493.43868,73.609983 q -0.36316,-0.68974 -0.34627,-1.308485 0.0169,-0.618744 0.40727,-1.216708 0.52551,-0.804952 1.37655,-0.87257 0.84644,-0.07062 1.88598,0.608035 l 3.10941,2.029957 -0.55553,0.850949 -3.08182,-2.01194 q -0.74055,-0.483466 -1.2705,-0.455508 -0.52994,0.02796 -0.88128,0.566126 -0.42941,0.657761 -0.24168,1.324813 0.18773,0.667052 0.94209,1.159527 l 2.91163,1.900834 -0.55554,0.850949 -3.08182,-2.011941 q -0.74515,-0.486469 -1.2705,-0.455508 -0.52994,0.02796 -0.88728,0.575326 -0.42341,0.648561 -0.23108,1.318616 0.18773,0.667053 0.93749,1.156525 l 2.91163,1.900833 -0.55554,0.850949 -5.15169,-3.363244 0.55553,-0.850949 0.80036,0.522504 q -0.28459,-0.599081 -0.24572,-1.150998 0.0389,-0.551918 0.40221,-1.108485 0.36636,-0.561166 0.90679,-0.765963 0.54343,-0.209397 1.20931,-0.04364 z" />
        <path
           inkscape:connector-curvature="0"
           id="path4498"
           style="font-size:11.25px;fill:#bc5fd3;stroke:#000000"
           d="m 500.08488,68.970758 -2.6954,-2.570158 0.69751,-0.731495 2.66757,2.543622 q 0.63211,0.602736 1.18518,0.659517 0.54909,0.05299 1.01915,-0.439974 0.56483,-0.592352 0.51316,-1.294372 -0.0479,-0.705995 -0.69986,-1.327685 l -2.52445,-2.407153 0.69751,-0.731496 4.45258,4.245688 -0.69751,0.731495 -0.68379,-0.652016 q 0.15152,0.65302 0.0129,1.196381 -0.13879,0.535595 -0.58232,1.00073 -0.73162,0.767275 -1.58776,0.709932 -0.85614,-0.05734 -1.77449,-0.933016 z m -1.0476,-4.513174 0,0 z" />
        <path
           inkscape:connector-curvature="0"
           id="path4500"
           style="font-size:11.25px;fill:#bc5fd3;stroke:#000000"
           d="m 509.27351,58.892532 2.29306,2.920803 -0.79502,0.624145 -2.2727,-2.894879 q -0.53934,-0.686993 -1.0752,-0.81802 -0.53586,-0.131027 -1.07163,0.289592 -0.64378,0.505422 -0.69312,1.20761 -0.0493,0.702187 0.50697,1.410784 l 2.1472,2.735012 -0.79933,0.627537 -3.79915,-4.839199 0.79934,-0.627537 0.59022,0.751804 q -0.0574,-0.66027 0.1575,-1.178202 0.21926,-0.521324 0.72479,-0.918198 0.8339,-0.654674 1.6687,-0.472005 0.83141,0.178348 1.61837,1.180753 z" />
        <path
           inkscape:connector-curvature="0"
           id="path4502"
           style="font-size:11.25px;fill:#bc5fd3;stroke:#000000"
           d="m 510.47236,55.19948 0.85493,-0.539164 3.28187,5.203909 -0.85493,0.539164 -3.28187,-5.203909 z m -1.27759,-2.025807 0.85493,-0.539165 0.68275,1.082599 -0.85493,0.539165 -0.68275,-1.082599 z" />
        <path
           inkscape:connector-curvature="0"
           id="path4504"
           style="font-size:11.25px;fill:#bc5fd3;stroke:#000000"
           d="m 513.97301,51.127138 0.81752,1.543717 1.83984,-0.974339 0.36763,0.694187 -1.83984,0.974339 1.56306,2.95151 q 0.3522,0.665061 0.63208,0.759265 0.28473,0.09163 0.84299,-0.204011 l 0.91749,-0.485885 0.39591,0.747587 -0.9175,0.485884 q -1.03399,0.547584 -1.6303,0.372318 -0.59888,-0.180121 -1.13875,-1.199557 l -1.56305,-2.95151 -0.65536,0.347061 -0.36762,-0.694188 0.65535,-0.34706 -0.81752,-1.543717 0.89807,-0.475601 z" />
        <path
           inkscape:connector-curvature="0"
           id="path4506"
           style="font-size:11.25px;fill:#bc5fd3;stroke:#000000"
           d="m 522.76639,52.388623 q -1.14068,0.446581 -1.47844,0.879676 -0.33777,0.433095 -0.0915,1.062255 0.19626,0.501281 0.63977,0.669791 0.44664,0.161393 1.01441,-0.0609 0.78262,-0.306398 1.03693,-1.04307 0.25742,-0.74379 -0.10305,-1.664512 l -0.0821,-0.209719 -0.93606,0.366476 z m 1.72505,-1.123705 1.27966,3.26856 -0.94118,0.36848 -0.34044,-0.86957 q -0.11799,0.647906 -0.50068,1.086791 -0.3847,0.433771 -1.08036,0.706125 -0.8798,0.344448 -1.59379,0.05766 -0.71088,-0.293904 -1.0353,-1.122553 -0.37849,-0.966757 0.0738,-1.710136 0.45737,-0.745382 1.74127,-1.248036 l 1.3197,-0.516672 -0.0361,-0.09207 q -0.25433,-0.64962 -0.82218,-0.834345 -0.56474,-0.191842 -1.33712,0.110552 -0.49105,0.19225 -0.91047,0.492135 -0.41941,0.299884 -0.75696,0.703399 l -0.34045,-0.86957 q 0.43853,-0.401753 0.88642,-0.689188 0.44588,-0.29255 0.90624,-0.472784 1.24297,-0.486633 2.10912,-0.08244 0.86614,0.404192 1.37881,1.713662 z" />
        <path
           inkscape:connector-curvature="0"
           id="path4508"
           style="font-size:11.25px;fill:#bc5fd3;stroke:#000000"
           d="m 530.82033,46.97163 0.23099,0.927478 q -0.46886,-0.109664 -0.94316,-0.104756 -0.4743,0.0049 -0.95403,0.124388 -0.73026,0.181875 -1.04229,0.497351 -0.30671,0.314148 -0.19519,0.761896 0.085,0.341141 0.39527,0.473313 0.30897,0.126842 1.14167,0.106264 l 0.3544,-0.009 q 1.1005,-0.03633 1.63981,0.265248 0.54331,0.294918 0.72519,1.025174 0.2071,0.831532 -0.33306,1.481209 -0.53482,0.64835 -1.68617,0.935102 -0.47973,0.11948 -1.026,0.153635 -0.53961,0.03816 -1.16175,-0.005 l -0.25224,-1.012763 q 0.61406,0.147096 1.1776,0.159587 0.56222,0.0072 1.07927,-0.121612 0.69294,-0.172583 1.00765,-0.500046 0.31338,-0.332794 0.20585,-0.764551 -0.0996,-0.399775 -0.42451,-0.545283 -0.31962,-0.146835 -1.28023,-0.117045 l -0.36105,0.005 q -0.95928,0.03512 -1.46263,-0.25843 -0.50467,-0.29888 -0.67725,-0.991824 -0.20976,-0.842192 0.27307,-1.449287 0.48283,-0.607095 1.58088,-0.880572 0.54369,-0.135411 1.04333,-0.174936 0.49965,-0.03953 0.94458,0.01949 z" />
        <path
           inkscape:connector-curvature="0"
           id="path4510"
           style="font-size:11.25px;fill:#bc5fd3;stroke:#000000"
           d="m 539.91261,47.807836 0.10028,3.003086 1.77879,-0.0594 q 0.89489,-0.02988 1.31084,-0.412019 0.42125,-0.38781 0.39576,-1.150935 -0.0257,-0.768614 -0.47148,-1.116478 -0.44051,-0.353537 -1.3354,-0.323654 l -1.77879,0.0594 z m -0.11257,-3.370924 0.0825,2.470546 1.64154,-0.05481 q 0.81254,-0.02713 1.19774,-0.342289 0.39051,-0.320828 0.36961,-0.9467 -0.0207,-0.620382 -0.43176,-0.914445 -0.40555,-0.294246 -1.21809,-0.267113 l -1.64154,0.05482 z m -1.13943,-0.874325 2.83289,-0.0946 q 1.26822,-0.04235 1.97208,0.461784 0.70386,0.504134 0.73631,1.475882 0.0251,0.752145 -0.3114,1.208576 -0.33652,0.456432 -1.01362,0.588967 0.82389,0.148367 1.29278,0.693324 0.47419,0.539284 0.50206,1.37378 0.0367,1.098021 -0.69001,1.721375 -0.72667,0.623355 -2.10468,0.66937 l -2.9427,0.09826 -0.27371,-8.196725 z" />
        <path
           inkscape:connector-curvature="0"
           id="path4512"
           style="font-size:11.25px;fill:#bc5fd3;stroke:#000000"
           d="m 553.0315,49.017713 -0.0564,0.491156 -4.61687,-0.530198 q -0.0536,1.044407 0.44039,1.654061 0.50005,0.604824 1.49874,0.719512 0.57847,0.06643 1.13504,-0.01341 0.56202,-0.07922 1.12943,-0.30158 l -0.10905,0.94957 q -0.5666,0.167162 -1.14794,0.222044 -0.58135,0.05488 -1.16528,-0.01217 -1.46256,-0.167959 -2.22158,-1.117691 -0.75357,-0.949106 -0.58687,-2.400746 0.17235,-1.500757 1.08093,-2.286628 0.91466,-0.790702 2.2899,-0.632771 1.23335,0.141637 1.85675,1.020502 0.62949,0.874034 0.47282,2.238358 z m -0.9703,-0.410009 q 0.0837,-0.825306 -0.31284,-1.368479 -0.39109,-0.542547 -1.13328,-0.62778 -0.84043,-0.09651 -1.40248,0.319987 -0.55659,0.417127 -0.73202,1.270606 l 3.58062,0.405666 z" />
        <path
           inkscape:connector-curvature="0"
           id="path4514"
           style="font-size:11.25px;fill:#bc5fd3;stroke:#000000"
           d="m 556.6363,44.452695 0.98763,0.214934 -1.8176,8.351872 -0.98762,-0.214934 1.81759,-8.351872 z" />
        <path
           inkscape:connector-curvature="0"
           id="path4516"
           style="font-size:11.25px;fill:#bc5fd3;stroke:#000000"
           d="m 562.02253,51.549523 q -1.16484,-0.37909 -1.70076,-0.258887 -0.53592,0.120203 -0.74501,0.762694 -0.1666,0.511904 0.0691,0.923664 0.24263,0.408237 0.82244,0.596931 0.7992,0.260093 1.46336,-0.14765 0.67108,-0.411266 0.97707,-1.351497 l 0.0697,-0.214164 -0.95591,-0.311091 z m 2.04623,0.226896 -1.08627,3.33782 -0.96113,-0.312791 0.28899,-0.887996 q -0.50247,0.4257 -1.07678,0.521856 -0.57261,0.09093 -1.283,-0.14026 -0.89845,-0.292392 -1.26805,-0.967244 -0.36268,-0.678375 -0.0873,-1.524583 0.32129,-0.987243 1.14264,-1.274505 0.82658,-0.285563 2.13768,0.141125 l 1.34767,0.438588 0.0306,-0.09402 q 0.21589,-0.663385 -0.10559,-1.166603 -0.31455,-0.506742 -1.1033,-0.763435 -0.50146,-0.163195 -1.01589,-0.19775 -0.51444,-0.03455 -1.03141,0.06293 l 0.28899,-0.887996 q 0.59387,-0.03202 1.1224,0.03023 0.53023,0.05703 1.00035,0.210021 1.26931,0.413088 1.68194,1.275244 0.41262,0.862156 -0.0226,2.199374 z" />
        <path
           inkscape:connector-curvature="0"
           id="path4518"
           style="font-size:11.25px;fill:#bc5fd3;stroke:#000000"
           d="m 567.91084,50.524355 0.92454,0.408432 -2.53051,5.728156 q -0.47502,1.075286 -1.10014,1.375638 -0.6201,0.302572 -1.52957,-0.0992 l -0.35173,-0.155382 0.34628,-0.783853 0.24621,0.108768 q 0.5276,0.233073 0.8273,0.07121 0.29749,-0.156836 0.63711,-0.925614 l 2.53051,-5.728156 z m 0.9678,-2.190769 0.92455,0.408433 -0.5172,1.170755 -0.92455,-0.408433 0.5172,-1.170755 z" />
        <path
           inkscape:connector-curvature="0"
           id="path4520"
           style="font-size:11.25px;fill:#bc5fd3;stroke:#000000"
           d="m 572.74276,56.37667 q -1.06437,-0.606366 -1.61352,-0.596789 -0.54915,0.0096 -0.88361,0.596651 -0.26647,0.46775 -0.11871,0.918606 0.15525,0.448803 0.68505,0.750626 0.73026,0.416026 1.46304,0.150706 0.74027,-0.267374 1.22972,-1.126508 l 0.11148,-0.195692 -0.87345,-0.4976 z m 1.95833,0.635174 -1.73752,3.049925 -0.87823,-0.500319 0.46225,-0.811404 q -0.57804,0.315537 -1.15994,0.293814 -0.57918,-0.0265 -1.2283,-0.396297 -0.82095,-0.46769 -1.04676,-1.203245 -0.21831,-0.73761 0.22219,-1.51083 0.51391,-0.902091 1.37634,-1.017685 0.86721,-0.112876 2.06522,0.569625 l 1.23142,0.701535 0.0489,-0.08591 q 0.34533,-0.606167 0.13202,-1.163908 -0.20582,-0.559795 -0.92654,-0.970383 -0.4582,-0.261037 -0.95508,-0.398699 -0.49688,-0.137663 -1.02289,-0.146513 l 0.46225,-0.811404 q 0.58812,0.08849 1.09321,0.256117 0.50782,0.162858 0.93738,0.407579 1.15983,0.660748 1.38998,1.588437 0.23015,0.927689 -0.46595,2.149568 z" />
        <path
           inkscape:connector-curvature="0"
           id="path4522"
           style="font-size:11.25px;fill:#bc5fd3;stroke:#000000"
           d="m 581.1834,59.535166 q -0.0784,-0.180612 -0.21601,-0.33655 -0.12989,-0.157102 -0.32448,-0.300469 -0.6899,-0.5083 -1.39374,-0.330909 -0.69615,0.176226 -1.31523,1.016493 l -1.92242,2.609249 -0.81815,-0.602792 3.64933,-4.953151 0.81815,0.602792 -0.56695,0.769507 q 0.58886,-0.262107 1.1598,-0.175782 0.57421,0.0819 1.16239,0.51526 0.084,0.06191 0.17597,0.150118 0.0952,0.08379 0.20274,0.197132 l -0.6114,0.839102 z" />
        <path
           inkscape:connector-curvature="0"
           id="path4524"
           style="font-size:11.25px;fill:#bc5fd3;stroke:#000000"
           d="m 588.33047,61.930409 0.75918,0.809258 -5.30024,4.972263 2.7323,2.912526 -0.68105,0.638916 -3.49149,-3.721785 5.9813,-5.611178 z" />
        <path
           inkscape:connector-curvature="0"
           id="path4526"
           style="font-size:11.25px;fill:#bc5fd3;stroke:#000000"
           d="m 591.67639,68.822074 0.61909,0.798954 -4.8632,3.768377 -0.61909,-0.798954 4.8632,-3.768377 z m 1.89317,-1.466975 0.61909,0.798953 -1.01172,0.783957 -0.61909,-0.798953 1.01172,-0.783957 z" />
        <path
           inkscape:connector-curvature="0"
           id="path4528"
           style="font-size:11.25px;fill:#bc5fd3;stroke:#000000"
           d="m 594.90263,77.914931 -3.15341,1.96091 -0.53374,-0.858326 3.12542,-1.943505 q 0.74171,-0.46122 0.93038,-0.979598 0.18867,-0.518378 -0.17102,-1.096815 -0.43221,-0.695057 -1.12483,-0.820659 -0.69263,-0.125602 -1.45765,0.350121 l -2.95283,1.836178 -0.53664,-0.862991 5.22459,-3.248844 0.53664,0.86299 -0.81168,0.504731 q 0.6626,0.0149 1.15401,0.285033 0.4943,0.274795 0.83369,0.820578 0.55985,0.900309 0.28725,1.710216 -0.26794,0.807006 -1.35018,1.479981 z" />
        <path
           inkscape:connector-curvature="0"
           id="path4530"
           style="font-size:11.25px;fill:#bc5fd3;stroke:#000000"
           d="m 595.24438,81.313561 3.41144,-1.494298 0.40553,0.92582 -3.37622,1.478871 q -0.80003,0.350433 -1.06591,0.838712 -0.26086,0.486076 0.0124,1.109998 0.32839,0.749713 0.99594,0.973056 0.66975,0.228374 1.49494,-0.133079 l 3.19508,-1.399527 0.40554,0.92582 -5.63543,2.468457 -0.40554,-0.92582 0.86545,-0.379084 q -0.6609,-0.112314 -1.10863,-0.44993 -0.4405,-0.334789 -0.69837,-0.92349 -0.42537,-0.971105 -0.042,-1.738746 0.3834,-0.76764 1.54571,-1.27676 z m 4.56774,0.77584 0,0 z" />
        <path
           inkscape:connector-curvature="0"
           id="path4532"
           style="font-size:11.25px;fill:#bc5fd3;stroke:#000000"
           d="m 603.34245,92.98032 -3.48346,-1.333282 -2.40899,3.10634 -0.32201,-1.147698 1.84338,-2.377118 -2.81089,-1.071268 -0.32201,-1.147699 3.74482,1.43111 2.23369,-2.89741 0.32201,1.147699 -1.66956,2.162898 2.55101,0.978729 0.32201,1.147699 z" />
        <path
           inkscape:connector-curvature="0"
           id="path4534"
           style="font-size:11.25px;fill:#bc5fd3;stroke:#000000"
           d="m 605.548,104.49012 -1.21245,-1.88537 -0.91821,2.04774 -0.56099,-0.27677 0.97164,-1.9251 -2.06494,0.15736 -0.0476,-0.62441 2.06493,-0.15736 -1.25214,-1.75563 0.51257,-0.358594 1.21792,1.884944 0.91274,-2.047319 0.56646,0.276358 -0.97164,1.925101 2.06494,-0.15736 0.0476,0.62441 -2.06494,0.15736 1.25214,1.75563 -0.51804,0.35901 z" />
        <path
           inkscape:connector-curvature="0"
           id="path4536"
           style="font-size:11.25px;fill:#bc5fd3;stroke:#000000"
           d="m 605.8179,117.02308 -1.07368,-0.13519 q 0.37868,-0.58902 0.59583,-1.12641 0.21716,-0.53738 0.28235,-1.05514 0.11324,-0.89927 -0.1738,-1.43371 -0.28773,-0.52898 -0.93085,-0.60996 -0.53956,-0.0679 -0.85801,0.21862 -0.31368,0.29269 -0.59656,1.17614 l -0.21998,0.64776 q -0.38945,1.20221 -1.05694,1.71057 -0.66274,0.5145 -1.65466,0.3896 -1.18268,-0.14892 -1.69289,-1.02151 -0.51091,-0.86713 -0.31806,-2.39861 0.0727,-0.57772 0.2859,-1.21526 0.21247,-0.6321 0.55647,-1.29746 l 1.13362,0.14275 q -0.46047,0.62301 -0.7322,1.24211 -0.27174,0.61909 -0.34997,1.24041 -0.11873,0.94287 0.18737,1.50185 0.3061,0.55898 0.99281,0.64545 0.59952,0.0755 0.98409,-0.25257 0.38389,-0.32261 0.65853,-1.14066 l 0.21522,-0.65389 q 0.40035,-1.20085 0.99288,-1.68543 0.59252,-0.48458 1.52449,-0.36722 1.07913,0.13588 1.60505,0.97168 0.52524,0.84125 0.3571,2.17654 -0.0721,0.57226 -0.25042,1.15328 -0.17835,0.58103 -0.46369,1.17626 z" />
        <path
           inkscape:connector-curvature="0"
           id="path4538"
           style="font-size:11.25px;fill:#bc5fd3;stroke:#000000"
           d="m 605.57029,120.02983 -1.81658,6.69583 -0.90126,-0.24452 0.7623,-2.8098 -7.01391,-1.90288 0.29197,-1.07621 7.01392,1.90288 0.7623,-2.80981 0.90126,0.24451 z" />
        <path
           inkscape:connector-curvature="0"
           id="path4540"
           style="font-size:11.25px;fill:#bc5fd3;stroke:#000000"
           d="m 602.61849,129.92507 -0.69301,1.5012 -5.94438,-0.43897 4.1854,4.24934 -0.693,1.50121 -7.44618,-3.43738 0.45356,-0.98251 6.53848,3.01835 -4.2207,-4.27773 0.46737,-1.01245 5.99349,0.43744 -6.53847,-3.01835 0.45125,-0.97753 7.44619,3.43738 z" />
        <path
           inkscape:connector-curvature="0"
           id="path4542"
           style="font-size:11.25px;fill:#bc5fd3;stroke:#000000"
           d="m 597.35883,140.17886 -0.59402,0.93723 -6.92714,-4.39044 0.59402,-0.93723 6.92714,4.39044 z" />
        <path
           inkscape:connector-curvature="0"
           id="path4544"
           style="font-size:11.25px;fill:#bc5fd3;stroke:#000000"
           d="m 594.70588,144.19465 -0.692,0.86741 -2.70956,-2.16165 0.41431,5.03868 -0.89069,1.11646 -0.4502,-5.56623 -6.14242,0.67918 0.91124,-1.14223 5.54371,-0.61574 -3.08745,-2.46311 0.692,-0.86741 6.41106,5.11464 z" />
        <path
           inkscape:connector-curvature="0"
           id="path4546"
           style="font-size:11.25px;fill:#bc5fd3;stroke:#000000"
           d="m 581.67307,151.8703 -1.87345,-2.34921 -1.39148,1.10969 q -0.70004,0.55826 -0.80556,1.11316 -0.10638,0.56261 0.36968,1.15957 0.4795,0.60126 1.04483,0.61414 0.56446,0.0206 1.26449,-0.53766 l 1.39149,-1.10969 z m 2.10292,2.63696 -1.54123,-1.93262 -1.28412,1.02406 q -0.63561,0.50689 -0.75646,0.98969 -0.12172,0.49053 0.26873,0.98013 0.38701,0.4853 0.89233,0.47578 0.50101,-0.006 1.13663,-0.51298 l 1.28412,-1.02406 z m 1.43607,0.0211 -2.21607,1.76728 q -0.99208,0.79116 -1.85771,0.80698 -0.86564,0.0158 -1.47185,-0.74433 -0.46922,-0.58838 -0.47178,-1.15545 -0.003,-0.56707 0.46149,-1.07766 -0.74951,0.37289 -1.45103,0.21568 -0.70238,-0.1495 -1.22297,-0.8023 -0.68499,-0.85894 -0.47423,-1.79286 0.21076,-0.93391 1.28874,-1.79358 l 2.30197,-1.83577 5.11344,6.41201 z" />
        <path
           inkscape:connector-curvature="0"
           id="path4549"
           style="font-size:11.25px;fill:#bc5fd3;stroke:#000000"
           d="m 574.61325,155.27319 1.86412,3.22427 -0.87502,0.5059 -1.84488,-3.19098 q -0.43716,-0.75614 -0.95196,-0.96612 -0.51205,-0.20522 -1.10174,0.13571 -0.70858,0.40966 -0.85636,1.0979 -0.15254,0.69098 0.29837,1.47089 l 1.74589,3.01978 -0.87502,0.5059 -3.07938,-5.32623 0.87503,-0.5059 0.4729,0.81796 q 0.0382,-0.66928 0.32396,-1.15176 0.28376,-0.47498 0.84016,-0.79666 0.91783,-0.53064 1.72332,-0.23492 0.80549,0.29572 1.44061,1.39426 z m -0.26347,4.62567 0,0 z" />
        <path
           inkscape:connector-curvature="0"
           id="path4551"
           style="font-size:11.25px;fill:#bc5fd3;stroke:#000000"
           d="m 563.33208,163.50633 q -0.12866,0.76881 -0.51678,1.25099 -0.38812,0.48217 -1.06088,0.72165 -0.90564,0.32237 -1.62385,-0.13916 -0.71638,-0.45635 -1.1327,-1.62592 l -1.24529,-3.49835 0.95739,-0.34079 1.23424,3.4673 q 0.29658,0.83318 0.73525,1.13184 0.43866,0.29865 1.04415,0.0831 0.74003,-0.26343 0.99456,-0.90796 0.25453,-0.64453 -0.0476,-1.49324 l -1.16608,-3.27582 0.95739,-0.34079 1.23423,3.46729 q 0.29843,0.83837 0.73525,1.13185 0.43867,0.29865 1.0545,0.0794 0.72969,-0.25974 0.98237,-0.90944 0.25453,-0.64453 -0.0457,-1.48807 l -1.16607,-3.27582 0.95739,-0.34079 2.06319,5.79608 -0.95738,0.34079 -0.32054,-0.90046 q -0.13629,0.64909 -0.50143,1.06477 -0.36514,0.41569 -0.99132,0.63859 -0.63136,0.22474 -1.18546,0.0605 -0.55926,-0.16243 -0.98881,-0.69756 z" />
        <path
           inkscape:connector-curvature="0"
           id="path4553"
           style="font-size:11.25px;fill:#bc5fd3;stroke:#000000"
           d="m 556.17803,166.7248 -0.99071,0.20023 -1.21879,-6.03042 0.99071,-0.20023 1.21879,6.03042 z m 0.47445,2.34755 -0.99071,0.20023 -0.25355,-1.25454 0.99071,-0.20023 0.25355,1.25454 z" />
        <path
           inkscape:connector-curvature="0"
           id="path4555"
           style="font-size:11.25px;fill:#bc5fd3;stroke:#000000"
           d="m 547.59137,164.9104 q 0.10434,1.09367 0.6156,1.65189 0.50579,0.55873 1.32057,0.481 0.80931,-0.0772 1.2058,-0.72203 0.39102,-0.64429 0.28668,-1.73796 -0.10382,-1.0882 -0.60961,-1.64694 -0.51126,-0.55821 -1.32057,-0.481 -0.81478,0.0777 -1.2058,0.72203 -0.39649,0.64482 -0.29267,1.73301 z m -1.23259,-2.27726 q -0.1492,-1.56394 0.47276,-2.3903 0.62144,-0.83182 2.05414,-0.96851 0.53043,-0.0506 1.00853,-0.0134 0.47759,0.0317 0.93617,0.15348 l 0.0934,0.97883 q -0.46589,-0.19835 -0.90884,-0.27197 -0.44295,-0.0736 -0.89136,-0.0308 -0.98977,0.0944 -1.43235,0.66087 -0.44311,0.56098 -0.34347,1.60543 l 0.0475,0.49762 q 0.26005,-0.5711 0.72117,-0.88548 0.46112,-0.31438 1.13919,-0.37907 1.12648,-0.10747 1.8974,0.68532 0.77091,0.7928 0.90603,2.2091 0.13564,1.42176 -0.47146,2.34603 -0.60711,0.92426 -1.73358,1.03173 -0.67808,0.0647 -1.19032,-0.15683 -0.51225,-0.22152 -0.87559,-0.73314 l 0.0887,0.92961 -1.00617,0.096 -0.51179,-5.36444 z" />
        <path
           inkscape:connector-curvature="0"
           id="path4557"
           style="font-size:11.25px;fill:#bc5fd3;stroke:#000000"
           d="m 540.77178,167.25485 q 0.81209,0.0382 1.31395,-0.57605 0.5016,-0.6088 0.55352,-1.7117 0.0519,-1.10291 -0.38451,-1.76137 -0.44218,-0.65323 -1.25975,-0.69172 -0.8066,-0.038 -1.30846,0.57631 -0.50186,0.61428 -0.55352,1.7117 -0.0514,1.09193 0.39051,1.75065 0.44166,0.6642 1.24826,0.70218 z m -0.0403,0.85598 q -1.3169,-0.062 -2.02833,-0.95337 -0.71143,-0.89138 -0.64013,-2.40582 0.071,-1.50895 0.86334,-2.33503 0.79203,-0.82059 2.10893,-0.75859 1.32239,0.0623 2.03382,0.95364 0.70568,0.89661 0.63464,2.40555 -0.0713,1.51444 -0.85785,2.33529 -0.79203,0.82059 -2.11442,0.75833 z" />
        <path
           inkscape:connector-curvature="0"
           id="path4559"
           style="font-size:11.25px;fill:#bc5fd3;stroke:#000000"
           d="m 531.55448,165.91296 q 0.15205,0.12513 0.34551,0.20138 0.18715,0.0808 0.42567,0.11988 0.84564,0.13864 1.39164,-0.33963 0.53968,-0.47373 0.70854,-1.50368 l 0.52435,-3.19827 1.00285,0.16441 -0.99538,6.07129 -1.00284,-0.16441 0.15463,-0.94322 q -0.40505,0.50137 -0.95273,0.68434 -0.54857,0.18839 -1.26954,0.0702 -0.10299,-0.0169 -0.22501,-0.0536 -0.1229,-0.0313 -0.27024,-0.0833 l 0.16255,-1.02542 z" />
        <path
           inkscape:connector-curvature="0"
           id="path4561"
           style="font-size:11.25px;fill:#bc5fd3;stroke:#000000"
           d="m 527.18688,162.61432 q 1.17815,0.33548 1.70922,0.19541 0.53107,-0.14007 0.71611,-0.78989 0.14743,-0.51775 -0.10344,-0.92046 -0.25766,-0.39892 -0.84409,-0.5659 -0.80832,-0.23017 -1.45684,0.20201 -0.65531,0.43596 -0.9261,1.38692 l -0.0617,0.21661 0.96682,0.2753 z m -2.05325,-0.15058 0.96129,-3.37594 0.9721,0.27681 -0.25574,0.89813 q 0.48628,-0.4441 1.05661,-0.56157 0.56883,-0.11218 1.28734,0.0924 0.9087,0.25875 1.30317,0.91938 0.38767,0.66441 0.14396,1.52028 -0.28432,0.99852 -1.09442,1.31615 -0.81538,0.31613 -2.14145,-0.0615 l -1.36305,-0.38812 -0.0271,0.0951 q -0.19106,0.67096 0.14893,1.16186 0.33319,0.49468 1.13095,0.72184 0.50718,0.14442 1.02255,0.15981 0.51537,0.0154 1.02836,-0.10128 l -0.25575,0.89814 q -0.59227,0.0541 -1.12275,0.0116 -0.53199,-0.0373 -1.00747,-0.17265 -1.28381,-0.36556 -1.72824,-1.21176 -0.44442,-0.8462 -0.0593,-2.19869 z" />
        <path
           inkscape:connector-curvature="0"
           id="path4563"
           style="font-size:11.25px;fill:#bc5fd3;stroke:#000000"
           d="m 515.45813,163.62713 -1.43641,-0.8189 0.94595,-5.88503 -4.59185,3.80649 -1.43641,-0.81891 4.06186,-7.12477 0.94011,0.53595 -3.56672,6.25626 4.62317,-3.83922 0.96874,0.55228 -0.94863,5.93409 3.56671,-6.25626 0.93534,0.53324 -4.06186,7.12478 z" />
        <path
           inkscape:connector-curvature="0"
           id="path4565"
           style="font-size:11.25px;fill:#bc5fd3;stroke:#000000"
           d="m 506.37997,151.54696 q 0.94736,0.77659 1.49031,0.85942 0.54295,0.0828 0.97129,-0.4397 0.34128,-0.41632 0.27138,-0.8856 -0.0776,-0.4685 -0.54919,-0.85506 -0.64997,-0.53281 -1.41692,-0.39439 -0.77467,0.13919 -1.40151,0.90387 l -0.14278,0.17417 0.77742,0.63729 z m -1.82376,-0.95519 2.22529,-2.71462 0.78167,0.64078 -0.59201,0.72219 q 0.62284,-0.21392 1.19282,-0.0947 0.56649,0.12343 1.14424,0.59705 0.7307,0.59898 0.8297,1.36202 0.0913,0.7638 -0.47289,1.45202 -0.65818,0.80291 -1.52777,0.77195 -0.87384,-0.0344 -1.94014,-0.90854 l -1.09604,-0.89847 -0.0627,0.0765 q -0.44227,0.53953 -0.32571,1.12518 0.10883,0.58642 0.75031,1.11227 0.40783,0.33432 0.87452,0.55351 0.46668,0.2192 0.98372,0.3163 l -0.59201,0.7222 q -0.56489,-0.18605 -1.03464,-0.43616 -0.47323,-0.24587 -0.85557,-0.55929 -1.03231,-0.84624 -1.10331,-1.79941 -0.071,-0.95317 0.82051,-2.04071 z" />
        <path
           inkscape:connector-curvature="0"
           id="path4567"
           style="font-size:11.25px;fill:#bc5fd3;stroke:#000000"
           d="m 498.45911,150.75981 1.25412,-1.21597 -1.44923,-1.49469 0.56396,-0.5468 1.44923,1.49468 2.39781,-2.32487 q 0.54029,-0.52387 0.55262,-0.81891 0.009,-0.299 -0.43124,-0.75253 l -0.7227,-0.74537 0.60734,-0.58887 0.7227,0.74537 q 0.81448,0.84003 0.81265,1.46155 -0.006,0.62535 -0.83397,1.42835 l -2.39781,2.32488 0.51622,0.53241 -0.56396,0.5468 -0.51622,-0.5324 -1.25411,1.21597 -0.70741,-0.7296 z" />
        <path
           inkscape:connector-curvature="0"
           id="path4569"
           style="font-size:11.25px;fill:#bc5fd3;stroke:#000000"
           d="m 497.21661,141.96519 q 0.74745,0.9705 1.25766,1.17384 0.51021,0.20333 1.04551,-0.20894 0.4265,-0.32848 0.4644,-0.80141 0.0302,-0.47394 -0.34185,-0.95702 -0.51282,-0.66586 -1.29121,-0.70425 -0.78609,-0.0394 -1.56946,0.56393 l -0.17843,0.13742 0.61338,0.79643 z m -1.56087,-1.34246 2.78096,-2.14181 0.61673,0.80078 -0.73985,0.5698 q 0.65507,-0.0677 1.18339,0.17715 0.52397,0.24821 0.97982,0.84009 0.57651,0.74855 0.50059,1.51423 -0.0836,0.76468 -0.78864,1.30767 -0.82254,0.63349 -1.66266,0.40691 -0.84348,-0.23094 -1.68478,-1.3233 l -0.86476,-1.12283 -0.0783,0.0603 q -0.55271,0.42568 -0.57145,1.02252 -0.0264,0.59585 0.47968,1.253 0.32177,0.4178 0.72688,0.73675 0.40512,0.31894 0.88686,0.53033 l -0.73985,0.5698 q -0.50826,-0.30883 -0.90937,-0.65859 -0.40546,-0.34641 -0.70712,-0.73809 -0.81449,-1.05755 -0.66835,-2.00212 0.14614,-0.94457 1.26026,-1.80263 z" />
        <path
           inkscape:connector-curvature="0"
           id="path4571"
           style="font-size:11.25px;fill:#bc5fd3;stroke:#000000"
           d="m 490.65312,135.80835 q 0.003,0.1969 0.0698,0.39378 0.0594,0.195 0.18377,0.40223 0.44101,0.73474 1.15888,0.84202 0.71034,0.10539 1.60522,-0.43174 l 2.77883,-1.66792 0.52299,0.87133 -5.27506,3.16623 -0.523,-0.87133 0.81952,-0.4919 q -0.64437,0.0152 -1.13806,-0.28431 -0.49841,-0.29667 -0.8744,-0.92309 -0.0537,-0.0895 -0.1046,-0.20629 -0.0556,-0.11398 -0.11121,-0.25999 l 0.88734,-0.53902 z" />
        <path
           inkscape:connector-curvature="0"
           id="path4573"
           style="font-size:11.25px;fill:#bc5fd3;stroke:#000000"
           d="m 490.34565,130.33448 q 0.50475,1.11615 0.95467,1.43116 0.44992,0.315 1.06556,0.0366 0.4905,-0.22182 0.63594,-0.67343 0.13817,-0.45435 -0.11307,-1.00993 -0.34631,-0.76579 -1.0951,-0.98181 -0.75607,-0.21876 -1.657,0.18866 l -0.20521,0.0928 0.41421,0.91595 z m -1.21108,-1.66488 3.1983,-1.44634 0.41648,0.92095 -0.85088,0.38479 q 0.65312,0.0845 1.11114,0.44402 0.45301,0.36184 0.76084,1.04255 0.38932,0.86088 0.13969,1.5887 -0.25689,0.72508 -1.06772,1.09176 -0.94598,0.42779 -1.71167,0.0144 -0.76795,-0.41836 -1.33608,-1.67466 l -0.58397,-1.29133 -0.0901,0.0407 q -0.63566,0.28746 -0.79089,0.86407 -0.16249,0.57387 0.17929,1.32965 0.21729,0.4805 0.53838,0.88391 0.3211,0.40341 0.74147,0.71972 l -0.85088,0.38479 q -0.42381,-0.41725 -0.73394,-0.84973 -0.31513,-0.43022 -0.51884,-0.88069 -0.55002,-1.21625 -0.19098,-2.10207 0.35903,-0.88581 1.64035,-1.46526 z" />
        <path
           inkscape:connector-curvature="0"
           id="path4575"
           style="font-size:11.25px;fill:#bc5fd3;stroke:#000000"
           d="m 485.16005,120.90467 q -0.75259,-0.20307 -1.19458,-0.6364 -0.442,-0.43332 -0.61468,-1.12624 -0.23245,-0.93278 0.29697,-1.60252 0.52409,-0.66842 1.72871,-0.96861 l 3.60318,-0.89793 0.24573,0.98608 -3.5712,0.88995 q -0.85815,0.21386 -1.19819,0.62128 -0.34004,0.40743 -0.18463,1.03106 0.18995,0.76221 0.80656,1.07842 0.61661,0.31622 1.49076,0.0984 l 3.37398,-0.84081 0.24573,0.98608 -3.5712,0.88995 q -0.86348,0.21519 -1.19819,0.62128 -0.34004,0.40743 -0.18197,1.04172 0.18729,0.75155 0.80923,1.06643 0.61661,0.31622 1.48543,0.0997 l 3.37398,-0.84081 0.24574,0.98608 -5.96977,1.48768 -0.24574,-0.98608 0.92745,-0.23112 q -0.63269,-0.19898 -1.01075,-0.60295 -0.37807,-0.40397 -0.53879,-1.04892 -0.16206,-0.65027 0.0555,-1.18569 0.21623,-0.54075 0.79073,-0.91602 z" />
        <path
           inkscape:connector-curvature="0"
           id="path4577"
           style="font-size:11.25px;fill:#bc5fd3;stroke:#000000"
           d="m 481.58931,104.51932 1.07161,1.96882 1.06522,-1.97527 0.53929,0.31698 -1.10955,1.84906 2.07092,-0.006 0.002,0.62621 -2.07092,0.006 1.12067,1.84233 -0.53736,0.32023 -1.07711,-1.96881 -1.05972,1.97525 -0.54479,-0.31697 1.10955,-1.84905 -2.07092,0.006 -0.002,-0.62622 2.07091,-0.006 -1.12067,-1.84233 0.54286,-0.32024 z" />
      </g>
    </g>
  </g>
</svg>
